<?xml version="1.0" encoding="utf-8"?>
<!-- Generator: Adobe Illustrator 22.0.1, SVG Export Plug-In . SVG Version: 6.00 Build 0)  -->
<svg version="1.1" id="Layer_1" xmlns="http://www.w3.org/2000/svg" xmlns:xlink="http://www.w3.org/1999/xlink" x="0px" y="0px"
	 viewBox="0 0 374.3 22" style="enable-background:new 0 0 374.3 22;" xml:space="preserve">
<style type="text/css">
	.st0{fill:#ECC3B2;}
</style>
<g>
	<g>
		<path class="st0" d="M17.2,0.3v16.1h-4.1V9.8l-3.3,3.8H8.5L5.2,9.8v6.6H1.1V0.3h1.3l6.7,8.2l6.7-8.2H17.2z"/>
		<path class="st0" d="M32.9,15.1h-5.7l-0.6,1.3h-4.4l7.2-16.1h1.3l7.2,16.1h-4.4L32.9,15.1z M30.1,8.2l-1.4,3.7h2.8L30.1,8.2z"/>
		<path class="st0" d="M53.7,4.3h-6.6v3h5.4V11h-5.4v5.4H43V0.6h10.8L53.7,4.3L53.7,4.3z"/>
		<path class="st0" d="M66.9,15.1h-5.7l-0.6,1.3h-4.4l7.2-16.1h1.3l7.2,16.1h-4.4L66.9,15.1z M64.1,8.2l-1.4,3.7h2.8L64.1,8.2z"/>
		<path class="st0" d="M81,12.7h6.6v3.7H76.9V0.6H81V12.7z"/>
		<path class="st0" d="M107.3,8.5c0,4.8-3.7,8-8.6,8h-5.5V0.7h5.5C103.5,0.6,107.3,3.6,107.3,8.5z M97.2,4.4v8.4h1.4
			c2.5,0,4.4-1.5,4.4-4.2c0-2.8-1.9-4.1-4.4-4.1L97.2,4.4L97.2,4.4z"/>
		<path class="st0" d="M120.8,15.1h-5.7l-0.6,1.3h-4.4l7.2-16.1h1.3l7.2,16.1h-4.4L120.8,15.1z M118,8.2l-1.4,3.7h2.8L118,8.2z"/>
		<path class="st0" d="M152.1,6.1c0,3.3-2.6,5.5-6.1,5.5h-2.1v4.9h-4.1V0.7h6.2C149.4,0.6,152.1,2.7,152.1,6.1z M143.8,4.2v3.7h2.1
			c1.2,0,1.9-0.7,1.9-1.9c0-1.1-0.7-1.8-1.9-1.8L143.8,4.2L143.8,4.2z"/>
		<path class="st0" d="M160.8,16.5h-4.1V0.7h4.1V16.5z"/>
		<path class="st0" d="M179.9,0.6v16.1h-1.3L170,8.4v8h-4.1V0.3h1.3l8.6,8.2V0.6L179.9,0.6L179.9,0.6z"/>
		<path class="st0" d="M198.3,4.3h-4.8v12.1h-4.1V4.3h-4.8V0.6h13.6L198.3,4.3L198.3,4.3z"/>
		<path class="st0" d="M219,8.5c0,4.7-3.8,8.2-8.6,8.2s-8.5-3.5-8.5-8.2s3.8-8.2,8.5-8.2S219,3.9,219,8.5z M206.1,8.5
			c0,2.7,1.8,4.4,4.3,4.4c2.4,0,4.3-1.7,4.3-4.4c0-2.6-1.9-4.4-4.3-4.4C207.9,4.1,206.1,5.9,206.1,8.5z"/>
		<path class="st0" d="M237.5,12.7h6.6v3.7h-10.7V0.6h4.1V12.7z"/>
		<path class="st0" d="M260.6,4.3h-6.9v2.2h4.9V10h-4.9v2.8h7.2v3.7h-11.3V0.7h11L260.6,4.3L260.6,4.3z"/>
		<path class="st0" d="M269.9,16.5h-4.1V0.7h4.1V16.5z"/>
		<path class="st0" d="M288.3,4.3h-4.8v12.1h-4.1V4.3h-4.8V0.6h13.6L288.3,4.3L288.3,4.3z"/>
		<path class="st0" d="M304,4.3h-6.9v2.2h4.9V10h-4.9v2.8h7.2v3.7H293V0.7h11V4.3z"/>
	</g>
	<g>
		<path class="st0" d="M319.1,7.3c1.2-0.9,1.5-2.3,1.1-2.4c-0.5,0-0.9-0.2-1.3-0.5c-0.8-0.8-0.8-2,0-2.8s2-0.8,2.8,0
			c1.2,1.2,0.2,3.3-0.5,4.3c-0.3,0.4-0.9,1.1-1.9,1.7L319.1,7.3z"/>
		<path class="st0" d="M335.7,16.1l-3.6,0.5c-0.6,0.1-0.6-0.4-0.6-0.4v-1.6c-0.5,1.4-2.1,2-3.4,2c-2.7,0-4.6-1.8-4.6-5.1
			c0-3.4,2.3-5,5.3-5c1.3,0,2.2,0.3,2.7,0.8V3.1c0-0.7-0.2-1-1.1-1.3V1.5l4.2-0.8v13.8c0,1,0.2,1.3,1.1,1.4L335.7,16.1L335.7,16.1z
			 M331.6,10c0-2.3-1.1-3.3-2.3-3.3c-1.3,0-2,1-2,4.4c0,3,0.6,4.4,2.2,4.4c1.1,0,1.9-0.9,2-1.9L331.6,10L331.6,10z"/>
		<path class="st0" d="M347.9,15.1c-0.2,0.8-1.3,1.5-2.6,1.5c0,0-2.1,0-2.3-1.8c-0.3,1-1.5,1.8-3,1.8c-0.4,0-2.5-0.2-2.5-2.2
			c0-2.2,1.8-2.5,5.5-3.4V9.7c0-2.2-1.2-3.3-2.7-2.6c-0.3,0.2-0.6,0.5-0.2,0.6c0.3,0.1,0.6,0.3,0.8,0.6c0.3,0.7,0.1,1.5-0.6,1.8
			c-0.7,0.3-1.5,0.1-1.8-0.6c-0.2-0.5-0.2-1.1,0.1-1.4c0.2-0.3,0.5-0.8,1.5-1.3c0.9-0.5,2-0.4,2-0.4c2.8,0,3.9,1.7,3.9,4.2v3.1
			c0,0,0,1.5,1,1.5c0,0,0.5,0,0.6-0.4L347.9,15.1z M340.8,13.9c0,0,0,1.4,1.1,1.4c0.5,0,0.9-0.4,1.1-0.9v-3.1
			C341.1,11.8,340.8,12.9,340.8,13.9z"/>
		<path class="st0" d="M354,16.4h-4.8v-0.3c0.8-0.3,0.8-1.1,0.8-2.2V9c0-0.7-0.2-1-1.1-1.4V7.3l4.2-0.9v7.5c0,1.2,0.1,2,0.9,2.2
			L354,16.4L354,16.4z M351.4,1.9c0.9,0,1.7,0.8,1.7,1.7c0,1-0.8,1.7-1.7,1.7c-1,0-1.7-0.8-1.7-1.7C349.6,2.7,350.4,1.9,351.4,1.9z"
			/>
		<path class="st0" d="M360.9,16.4h-4.8v-0.3c0.8-0.2,0.8-1.1,0.8-2.2V3.1c0-0.7-0.2-1.1-1.1-1.4V1.4l4.2-0.8v13.3
			c0,1.2,0.1,2,0.9,2.2L360.9,16.4L360.9,16.4z"/>
		<path class="st0" d="M373.2,6.7V7c-1,0-1.7,0.4-3,3.4l-2.9,8c-0.6,1.8-1.2,2.5-1.7,2.9c-0.4,0.3-1.3,0.5-1.8,0.2
			c-0.8-0.4-1.2-1.4-0.8-2.2c0.4-0.8,1.3-1.2,2.2-0.8c0.4,0.2,0.7,0.5,0.8,0.9c0.1,0.3,0.6,0.4,1.1-1.1l0.4-1.1
			c-0.7-1.5-4.4-9.2-4.4-9.2c-0.5-1-1.1-1.1-1.5-1.1V6.6h5.8v0.3c-1.3,0-0.5,1.5-0.5,1.5l2.2,4.5l1-2.7c0,0,1.2-3.3-1.3-3.3V6.6h4.4
			V6.7z"/>
	</g>
</g>
</svg>
