<?xml version="1.0" encoding="utf-8"?>
<!-- Generator: Adobe Illustrator 22.0.1, SVG Export Plug-In . SVG Version: 6.00 Build 0)  -->
<svg version="1.1" id="Layer_1" xmlns="http://www.w3.org/2000/svg" xmlns:xlink="http://www.w3.org/1999/xlink" x="0px" y="0px"
	 viewBox="0 0 170.2 30" style="enable-background:new 0 0 170.2 30;" xml:space="preserve">
<style type="text/css">
	.st0{fill:#A85566;}
</style>
<g>
	<g>
		<path d="M22.4,0.4v22.4h-5.7v-9.2l-4.6,5.3h-1.8l-4.5-5.3v9.2H0.1V0.4h1.8l9.4,11.4l9.4-11.4H22.4z"/>
	</g>
	<g>
		<path d="M53.3,8.1c0,4.6-3.7,7.6-8.5,7.6h-2.9v6.8h-5.7v-22h8.6C49.7,0.6,53.3,3.5,53.3,8.1z M41.9,5.5v5.2h2.9
			c1.6,0,2.6-1,2.6-2.6c0-1.5-1-2.6-2.6-2.6H41.9z"/>
	</g>
	<g>
		<path d="M72.9,17.4H82v5.2H67.2v-22h5.7L72.9,17.4L72.9,17.4z"/>
	</g>
	<g>
		<path class="st0" d="M94.9,9.7c1.6-1.3,2.1-3.3,1.6-3.3c-0.7-0.1-1.3-0.3-1.8-0.8c-1.1-1.1-1.1-2.8,0-3.9s2.8-1.1,3.8,0
			c1.7,1.7,0.3,4.6-0.7,6c-0.4,0.6-1.3,1.6-2.6,2.3L94.9,9.7z"/>
		<path class="st0" d="M118.1,22l-5,0.7c-0.8,0.1-0.8-0.5-0.8-0.5V20c-0.7,1.9-3,2.8-4.7,2.8c-3.7,0-6.3-2.5-6.3-7.1
			c0-4.8,3.1-7,7.3-7c1.8,0,3,0.4,3.7,1.1V4c0-1-0.3-1.4-1.5-1.8V1.8l5.8-1.2v19.1c0,1.4,0.3,1.8,1.5,1.9V22z M112.3,13.5
			c0-3.2-1.6-4.5-3.1-4.5c-1.8,0-2.8,1.4-2.8,6.1c0,4.2,0.9,6.1,3.1,6.1c1.6,0,2.7-1.2,2.8-2.7V13.5z"/>
		<path class="st0" d="M135,20.6c-0.3,1.1-1.8,2.1-3.6,2.1c0,0-2.9,0-3.2-2.5c-0.4,1.4-2,2.5-4.1,2.5c-0.6,0-3.5-0.2-3.5-3
			c0-3,2.4-3.5,7.6-4.7v-1.8c0-3-1.7-4.6-3.7-3.6c-0.5,0.2-0.9,0.7-0.3,0.9c0.5,0.1,0.8,0.4,1.1,0.9c0.5,0.9,0.1,2-0.8,2.5
			s-2.1,0.1-2.5-0.8c-0.3-0.7-0.3-1.5,0.1-2c0.3-0.4,0.8-1.1,2.1-1.8c1.3-0.7,2.8-0.6,2.8-0.6c3.8,0,5.4,2.4,5.4,5.9V19
			c0,0,0,2.1,1.4,2.1c0,0,0.7,0,0.9-0.5H135z M125.1,19c0,0,0,1.9,1.5,1.9c0.8,0,1.3-0.6,1.6-1.3v-4.3
			C125.5,15.9,125.1,17.5,125.1,19z"/>
		<path class="st0" d="M143.4,22.4h-6.7V22c1.1-0.4,1.2-1.6,1.2-3.1v-6.8c0-1-0.3-1.4-1.5-2V9.7l5.8-1.2v10.4c0,1.6,0.1,2.8,1.2,3.1
			V22.4z M139.8,2.3c1.3,0,2.4,1.1,2.4,2.4s-1.1,2.4-2.4,2.4s-2.4-1.1-2.4-2.4C137.4,3.3,138.4,2.3,139.8,2.3z"/>
		<path class="st0" d="M153.1,22.4h-6.7V22c1.1-0.3,1.2-1.6,1.2-3.1v-15c0-1-0.3-1.5-1.5-1.9V1.6l5.8-1.2v18.4
			c0,1.6,0.1,2.8,1.2,3.1V22.4z"/>
		<path class="st0" d="M170.1,8.9v0.4c-1.4,0-2.4,0.6-4.1,4.7l-4.1,11.2c-0.8,2.5-1.7,3.4-2.3,4c-0.6,0.5-1.8,0.6-2.5,0.3
			c-1.1-0.5-1.7-1.9-1.1-3c0.5-1.1,1.8-1.6,3-1.1c0.6,0.3,1,0.7,1.1,1.3c0.1,0.4,0.9,0.6,1.5-1.5l0.6-1.5
			c-0.9-2.1-6.1-12.7-6.1-12.7c-0.6-1.3-1.6-1.5-2.1-1.5V9.1h8.1v0.4c-1.8,0-0.7,2.1-0.7,2.1l3,6.2l1.4-3.8c0,0,1.7-4.6-1.8-4.6V9
			h6.1V8.9z"/>
	</g>
</g>
</svg>
