<?xml version="1.0" encoding="utf-8"?>
<!-- Generator: Adobe Illustrator 22.0.1, SVG Export Plug-In . SVG Version: 6.00 Build 0)  -->
<svg version="1.1" id="Layer_1" xmlns="http://www.w3.org/2000/svg" xmlns:xlink="http://www.w3.org/1999/xlink" x="0px" y="0px"
	 viewBox="0 0 375.1 24" style="enable-background:new 0 0 375.1 24;" xml:space="preserve">
<style type="text/css">
	.st0{fill:#A0D1CA;}
</style>
<g>
	<g>
		<path d="M17.6,1.4v16.1h-4.1v-6.6l-3.3,3.8H8.9l-3.3-3.8v6.6H1.5V1.4h1.3l6.7,8.2l6.7-8.2H17.6z"/>
		<path d="M33.3,16.1h-5.7L27,17.4h-4.4l7.2-16.1h1.3l7.2,16.1h-4.4L33.3,16.1z M30.5,9.3L29.1,13h2.8L30.5,9.3z"/>
		<path d="M54.1,5.4h-6.6v3h5.4v3.7h-5.4v5.4h-4.1V1.7h10.8L54.1,5.4L54.1,5.4z"/>
		<path d="M67.3,16.1h-5.7L61,17.4h-4.4l7.2-16.1h1.3l7.2,16.1h-4.4L67.3,16.1z M64.5,9.3L63.1,13h2.8L64.5,9.3z"/>
		<path d="M81.4,13.8H88v3.7H77.3V1.7h4.1V13.8z"/>
		<path d="M107.7,9.6c0,4.8-3.7,8-8.6,8h-5.5V1.8h5.5C103.9,1.6,107.7,4.6,107.7,9.6z M97.6,5.5v8.4H99c2.5,0,4.4-1.5,4.4-4.2
			c0-2.8-1.9-4.1-4.4-4.1L97.6,5.5L97.6,5.5z"/>
		<path d="M121.2,16.1h-5.7l-0.6,1.3h-4.4l7.2-16.1h1.3l7.2,16.1h-4.4L121.2,16.1z M118.4,9.3L117,13h2.8L118.4,9.3z"/>
		<path d="M152.5,7.1c0,3.3-2.6,5.5-6.1,5.5h-2.1v4.9h-4.1V1.8h6.2C149.8,1.6,152.5,3.8,152.5,7.1z M144.2,5.3V9h2.1
			c1.2,0,1.9-0.7,1.9-1.9c0-1.1-0.7-1.8-1.9-1.8L144.2,5.3L144.2,5.3z"/>
		<path d="M161.2,17.6h-4.1V1.8h4.1V17.6z"/>
		<path d="M180.3,1.6v16.1H179l-8.6-8.3v8h-4.1V1.4h1.3l8.6,8.2V1.7L180.3,1.6L180.3,1.6z"/>
		<path d="M198.7,5.4h-4.8v12.1h-4.1V5.4H185V1.6h13.6L198.7,5.4L198.7,5.4z"/>
		<path d="M219.4,9.6c0,4.7-3.8,8.2-8.6,8.2s-8.5-3.5-8.5-8.2s3.8-8.2,8.5-8.2S219.4,5,219.4,9.6z M206.5,9.6c0,2.7,1.8,4.4,4.3,4.4
			c2.4,0,4.3-1.7,4.3-4.4c0-2.6-1.9-4.4-4.3-4.4C208.3,5.1,206.5,7,206.5,9.6z"/>
		<path d="M237.9,13.8h6.6v3.7h-10.7V1.7h4.1V13.8z"/>
		<path d="M261,5.4h-6.9v2.2h4.9v3.5h-4.9v2.8h7.2v3.7H250V1.8h11L261,5.4L261,5.4z"/>
		<path d="M270.3,17.6h-4.1V1.8h4.1V17.6z"/>
		<path d="M288.7,5.4h-4.8v12.1h-4.1V5.4H275V1.6h13.6L288.7,5.4L288.7,5.4z"/>
		<path d="M304.4,5.4h-6.9v2.2h4.9v3.5h-4.9v2.8h7.2v3.7h-11.3V1.8h11V5.4z"/>
	</g>
	<g>
		<path class="st0" d="M319.5,8.4c1.2-0.9,1.5-2.3,1.1-2.4c-0.5,0-0.9-0.2-1.3-0.5c-0.8-0.8-0.8-2,0-2.8s2-0.8,2.8,0
			c1.2,1.2,0.2,3.3-0.5,4.3c-0.3,0.4-0.9,1.1-1.9,1.7L319.5,8.4z"/>
		<path class="st0" d="M336.1,17.1l-3.6,0.5c-0.6,0.1-0.6-0.4-0.6-0.4v-1.6c-0.5,1.4-2.1,2-3.4,2c-2.7,0-4.6-1.8-4.6-5.1
			c0-3.4,2.3-5,5.3-5c1.3,0,2.2,0.3,2.7,0.8V4.1c0-0.7-0.2-1-1.1-1.3V2.5l4.2-0.8v13.8c0,1,0.2,1.3,1.1,1.4L336.1,17.1L336.1,17.1z
			 M332,11.1c0-2.3-1.1-3.3-2.3-3.3c-1.3,0-2,1-2,4.4c0,3,0.6,4.4,2.2,4.4c1.1,0,1.9-0.9,2-1.9L332,11.1L332,11.1z"/>
		<path class="st0" d="M348.3,16.1c-0.2,0.8-1.3,1.5-2.6,1.5c0,0-2.1,0-2.3-1.8c-0.3,1-1.5,1.8-3,1.8c-0.4,0-2.5-0.2-2.5-2.2
			c0-2.2,1.8-2.5,5.5-3.4v-1.3c0-2.2-1.2-3.3-2.7-2.6c-0.3,0.2-0.6,0.5-0.2,0.6c0.3,0.1,0.6,0.3,0.8,0.6c0.3,0.7,0.1,1.5-0.6,1.8
			c-0.7,0.3-1.5,0.1-1.8-0.6c-0.2-0.5-0.2-1.1,0.1-1.4c0.2-0.3,0.5-0.8,1.5-1.3c0.9-0.5,2-0.4,2-0.4c2.8,0,3.9,1.7,3.9,4.2v3.1
			c0,0,0,1.5,1,1.5c0,0,0.5,0,0.6-0.4L348.3,16.1z M341.2,15c0,0,0,1.4,1.1,1.4c0.5,0,0.9-0.4,1.1-0.9v-3.1
			C341.5,12.9,341.2,14,341.2,15z"/>
		<path class="st0" d="M354.4,17.5h-4.8v-0.3c0.8-0.3,0.8-1.1,0.8-2.2v-4.9c0-0.7-0.2-1-1.1-1.4V8.4l4.2-0.9V15c0,1.2,0.1,2,0.9,2.2
			L354.4,17.5L354.4,17.5z M351.8,3c0.9,0,1.7,0.8,1.7,1.7c0,1-0.8,1.7-1.7,1.7c-1,0-1.7-0.8-1.7-1.7C350,3.8,350.8,3,351.8,3z"/>
		<path class="st0" d="M361.3,17.5h-4.8v-0.3c0.8-0.2,0.8-1.1,0.8-2.2V4.2c0-0.7-0.2-1.1-1.1-1.4V2.5l4.2-0.8V15
			c0,1.2,0.1,2,0.9,2.2L361.3,17.5L361.3,17.5z"/>
		<path class="st0" d="M373.6,7.8V8c-1,0-1.7,0.4-3,3.4l-2.9,8c-0.6,1.8-1.2,2.5-1.7,2.9c-0.4,0.3-1.3,0.5-1.8,0.2
			c-0.8-0.4-1.2-1.4-0.8-2.2c0.4-0.8,1.3-1.2,2.2-0.8c0.4,0.2,0.7,0.5,0.8,0.9c0.1,0.3,0.6,0.4,1.1-1.1l0.4-1.1
			c-0.7-1.5-4.4-9.2-4.4-9.2c-0.5-1-1.1-1.1-1.5-1.1V7.6h5.8v0.3c-1.3,0-0.5,1.5-0.5,1.5l2.2,4.5l1-2.7c0,0,1.2-3.3-1.3-3.3V7.6h4.4
			V7.8z"/>
	</g>
</g>
</svg>
