<?xml version="1.0" encoding="utf-8"?>
<!-- Generator: Adobe Illustrator 22.0.1, SVG Export Plug-In . SVG Version: 6.00 Build 0)  -->
<svg version="1.1" id="Layer_1" xmlns="http://www.w3.org/2000/svg" xmlns:xlink="http://www.w3.org/1999/xlink" x="0px" y="0px"
	 viewBox="0 0 375.1 24" style="enable-background:new 0 0 375.1 24;" xml:space="preserve">
<style type="text/css">
	.st0{fill:#A85566;}
</style>
<g>
	<g>
		<path d="M18,1.7v16.1h-4.1v-6.6L10.6,15H9.3L6,11.2v6.6H1.9V1.7h1.3l6.7,8.2l6.7-8.2H18z"/>
		<path d="M33.7,16.5H28l-0.6,1.3H23l7.2-16.1h1.3l7.2,16.1h-4.4L33.7,16.5z M30.9,9.6l-1.4,3.7h2.8L30.9,9.6z"/>
		<path d="M54.5,5.7h-6.6v3h5.4v3.7h-5.4v5.4h-4.1V2h10.8L54.5,5.7L54.5,5.7z"/>
		<path d="M67.7,16.5H62l-0.6,1.3H57l7.2-16.1h1.3l7.2,16.1h-4.4L67.7,16.5z M64.9,9.6l-1.4,3.7h2.8L64.9,9.6z"/>
		<path d="M81.8,14.1h6.6v3.7H77.7V2h4.1V14.1z"/>
		<path d="M108.1,9.9c0,4.8-3.7,8-8.6,8H94V2.1h5.5C104.3,2,108.1,5,108.1,9.9z M98,5.8v8.4h1.4c2.5,0,4.4-1.5,4.4-4.2
			c0-2.8-1.9-4.1-4.4-4.1L98,5.8L98,5.8z"/>
		<path d="M121.6,16.5h-5.7l-0.6,1.3h-4.4l7.2-16.1h1.3l7.2,16.1h-4.4L121.6,16.5z M118.8,9.6l-1.4,3.7h2.8L118.8,9.6z"/>
		<path d="M152.9,7.5c0,3.3-2.6,5.5-6.1,5.5h-2.1v4.9h-4.1V2.1h6.2C150.2,2,152.9,4.1,152.9,7.5z M144.6,5.6v3.7h2.1
			c1.2,0,1.9-0.7,1.9-1.9c0-1.1-0.7-1.8-1.9-1.8L144.6,5.6L144.6,5.6z"/>
		<path d="M161.6,17.9h-4.1V2.1h4.1V17.9z"/>
		<path d="M180.7,2v16.1h-1.3l-8.6-8.3v8h-4.1V1.7h1.3l8.6,8.2V2L180.7,2L180.7,2z"/>
		<path d="M199.1,5.7h-4.8v12.1h-4.1V5.7h-4.8V2H199L199.1,5.7L199.1,5.7z"/>
		<path d="M219.8,9.9c0,4.7-3.8,8.2-8.6,8.2s-8.5-3.5-8.5-8.2s3.8-8.2,8.5-8.2S219.8,5.3,219.8,9.9z M206.9,9.9
			c0,2.7,1.8,4.4,4.3,4.4c2.4,0,4.3-1.7,4.3-4.4c0-2.6-1.9-4.4-4.3-4.4C208.7,5.5,206.9,7.3,206.9,9.9z"/>
		<path d="M238.3,14.1h6.6v3.7h-10.7V2h4.1V14.1z"/>
		<path d="M261.4,5.7h-6.9v2.2h4.9v3.5h-4.9v2.8h7.2v3.7h-11.3V2.1h11L261.4,5.7L261.4,5.7z"/>
		<path d="M270.7,17.9h-4.1V2.1h4.1V17.9z"/>
		<path d="M289.1,5.7h-4.8v12.1h-4.1V5.7h-4.8V2H289L289.1,5.7L289.1,5.7z"/>
		<path d="M304.8,5.7h-6.9v2.2h4.9v3.5h-4.9v2.8h7.2v3.7h-11.3V2.1h11V5.7z"/>
	</g>
	<g>
		<path class="st0" d="M319.9,8.7c1.2-0.9,1.5-2.3,1.1-2.4c-0.5,0-0.9-0.2-1.3-0.5c-0.8-0.8-0.8-2,0-2.8s2-0.8,2.8,0
			c1.2,1.2,0.2,3.3-0.5,4.3c-0.3,0.4-0.9,1.1-1.9,1.7L319.9,8.7z"/>
		<path class="st0" d="M336.5,17.5l-3.6,0.5c-0.6,0.1-0.6-0.4-0.6-0.4V16c-0.5,1.4-2.1,2-3.4,2c-2.7,0-4.6-1.8-4.6-5.1
			c0-3.4,2.3-5,5.3-5c1.3,0,2.2,0.3,2.7,0.8V4.5c0-0.7-0.2-1-1.1-1.3V2.9l4.2-0.8v13.8c0,1,0.2,1.3,1.1,1.4L336.5,17.5L336.5,17.5z
			 M332.4,11.4c0-2.3-1.1-3.3-2.3-3.3c-1.3,0-2,1-2,4.4c0,3,0.6,4.4,2.2,4.4c1.1,0,1.9-0.9,2-1.9L332.4,11.4L332.4,11.4z"/>
		<path class="st0" d="M348.7,16.5c-0.2,0.8-1.3,1.5-2.6,1.5c0,0-2.1,0-2.3-1.8c-0.3,1-1.5,1.8-3,1.8c-0.4,0-2.5-0.2-2.5-2.2
			c0-2.2,1.8-2.5,5.5-3.4v-1.3c0-2.2-1.2-3.3-2.7-2.6c-0.3,0.2-0.6,0.5-0.2,0.6c0.3,0.1,0.6,0.3,0.8,0.6c0.3,0.7,0.1,1.5-0.6,1.8
			c-0.7,0.3-1.5,0.1-1.8-0.6c-0.2-0.5-0.2-1.1,0.1-1.4c0.2-0.3,0.5-0.8,1.5-1.3c0.9-0.5,2-0.4,2-0.4c2.8,0,3.9,1.7,3.9,4.2v3.1
			c0,0,0,1.5,1,1.5c0,0,0.5,0,0.6-0.4L348.7,16.5z M341.6,15.3c0,0,0,1.4,1.1,1.4c0.5,0,0.9-0.4,1.1-0.9v-3.1
			C341.9,13.2,341.6,14.3,341.6,15.3z"/>
		<path class="st0" d="M354.8,17.8H350v-0.3c0.8-0.3,0.8-1.1,0.8-2.2v-4.9c0-0.7-0.2-1-1.1-1.4V8.7l4.2-0.9v7.5c0,1.2,0.1,2,0.9,2.2
			L354.8,17.8L354.8,17.8z M352.2,3.3c0.9,0,1.7,0.8,1.7,1.7c0,1-0.8,1.7-1.7,1.7c-1,0-1.7-0.8-1.7-1.7
			C350.4,4.1,351.2,3.3,352.2,3.3z"/>
		<path class="st0" d="M361.7,17.8h-4.8v-0.3c0.8-0.2,0.8-1.1,0.8-2.2V4.5c0-0.7-0.2-1.1-1.1-1.4V2.8l4.2-0.8v13.3
			c0,1.2,0.1,2,0.9,2.2L361.7,17.8L361.7,17.8z"/>
		<path class="st0" d="M374,8.1v0.3c-1,0-1.7,0.4-3,3.4l-2.9,8c-0.6,1.8-1.2,2.5-1.7,2.9c-0.4,0.3-1.3,0.5-1.8,0.2
			c-0.8-0.4-1.2-1.4-0.8-2.2c0.4-0.8,1.3-1.2,2.2-0.8c0.4,0.2,0.7,0.5,0.8,0.9c0.1,0.3,0.6,0.4,1.1-1.1l0.4-1.1
			c-0.7-1.5-4.4-9.2-4.4-9.2c-0.5-1-1.1-1.1-1.5-1.1V8h5.8v0.3c-1.3,0-0.5,1.5-0.5,1.5l2.2,4.5l1-2.7c0,0,1.2-3.3-1.3-3.3V8h4.4V8.1
			z"/>
	</g>
</g>
</svg>
