<?xml version="1.0" encoding="utf-8"?>
<!-- Generator: Adobe Illustrator 19.2.1, SVG Export Plug-In . SVG Version: 6.00 Build 0)  -->
<svg version="1.1" id="Layer_1" xmlns="http://www.w3.org/2000/svg" xmlns:xlink="http://www.w3.org/1999/xlink" x="0px" y="0px"
	 viewBox="0 0 48 60" style="enable-background:new 0 0 48 60;" xml:space="preserve">
<style type="text/css">
	.st0{fill:none;}
</style>
<title>Heart</title>
<g>
	<rect y="0" class="st0" width="48" height="48"/>
</g>
<g>
	<path d="M32.5,16.7c1.9,0,3.6,0.7,5,2.1c2.7,2.7,2.7,7.2,0,9.9l0,0L36,30L24,42L12,30l-1.4-1.4c-2.8-2.6-3-7.1-0.3-9.9
		s7.1-3,9.9-0.3c0.1,0.1,0.2,0.2,0.3,0.3l1.4,1.4l2.1,2.1l2.1-2.1l1.4-1.4C28.9,17.4,30.8,16.7,32.5,16.7 M32.5,13.7
		c-2.7,0-5.2,1.1-7.1,2.9L24,18l-1.4-1.4c-3.9-3.9-10.3-3.9-14.2,0s-3.9,10.3,0,14.2l1.4,1.4L24,46.3l14.1-14.1l1.4-1.4
		c3.9-3.9,3.9-10.2,0-14.1C37.8,14.7,35.1,13.7,32.5,13.7L32.5,13.7z"/>
</g>
<g>
	<path d="M94.7,13.7c-2.7,0-5.2,1.1-7.1,2.9L86.2,18l-1.4-1.4c-3.9-3.9-10.3-3.9-14.2,0c-3.9,3.9-3.9,10.3,0,14.2l1.4,1.4l14.2,14.1
		l14.1-14.1l1.4-1.4c3.9-3.9,3.9-10.2,0-14.1C99.9,14.7,97.3,13.7,94.7,13.7L94.7,13.7z"/>
</g>
</svg>
